<mxfile modified="2023-09-03T04:16:01.705Z" host="app.diagrams.net" agent="Mozilla/5.0 (Windows NT 10.0; Win64; x64) AppleWebKit/537.36 (KHTML, like Gecko) Chrome/116.0.0.0 Safari/537.36" etag="V02vo7aeLvT7eGU5ST45" version="21.7.2" type="github">
  <diagram id="Ht1M8jgEwFfnCIfOTk4-" name="Page-1">
    <mxGraphModel dx="1354" dy="578" grid="1" gridSize="10" guides="1" tooltips="1" connect="1" arrows="1" fold="1" page="1" pageScale="1" pageWidth="1169" pageHeight="827" math="0" shadow="0">
      <root>
        <mxCell id="0" />
        <mxCell id="1" parent="0" />
        <mxCell id="9Y4qasNTkNWfP-TO7m-Q-51" style="edgeStyle=orthogonalEdgeStyle;rounded=0;orthogonalLoop=1;jettySize=auto;html=1;flowAnimation=1;" parent="1" source="9Y4qasNTkNWfP-TO7m-Q-2" target="9Y4qasNTkNWfP-TO7m-Q-49" edge="1">
          <mxGeometry relative="1" as="geometry" />
        </mxCell>
        <mxCell id="9Y4qasNTkNWfP-TO7m-Q-2" value="Users" style="sketch=0;outlineConnect=0;fontColor=#232F3E;gradientColor=none;strokeColor=#232F3E;fillColor=#ffffff;dashed=0;verticalLabelPosition=bottom;verticalAlign=top;align=center;html=1;fontSize=12;fontStyle=0;aspect=fixed;shape=mxgraph.aws4.resourceIcon;resIcon=mxgraph.aws4.users;" parent="1" vertex="1">
          <mxGeometry x="210" y="380" width="60" height="60" as="geometry" />
        </mxCell>
        <mxCell id="9Y4qasNTkNWfP-TO7m-Q-3" value="Halley Cloud" style="points=[[0,0],[0.25,0],[0.5,0],[0.75,0],[1,0],[1,0.25],[1,0.5],[1,0.75],[1,1],[0.75,1],[0.5,1],[0.25,1],[0,1],[0,0.75],[0,0.5],[0,0.25]];outlineConnect=0;gradientColor=none;html=1;whiteSpace=wrap;fontSize=12;fontStyle=0;container=1;pointerEvents=0;collapsible=0;recursiveResize=0;shape=mxgraph.aws4.group;grIcon=mxgraph.aws4.group_aws_cloud_alt;strokeColor=#232F3E;fillColor=none;verticalAlign=top;align=left;spacingLeft=30;fontColor=#232F3E;dashed=0;" parent="1" vertex="1">
          <mxGeometry x="450" y="30" width="650" height="700" as="geometry" />
        </mxCell>
        <mxCell id="9Y4qasNTkNWfP-TO7m-Q-38" value="" style="sketch=0;points=[[0,0,0],[0.25,0,0],[0.5,0,0],[0.75,0,0],[1,0,0],[0,1,0],[0.25,1,0],[0.5,1,0],[0.75,1,0],[1,1,0],[0,0.25,0],[0,0.5,0],[0,0.75,0],[1,0.25,0],[1,0.5,0],[1,0.75,0]];outlineConnect=0;fontColor=#232F3E;gradientColor=#945DF2;gradientDirection=north;fillColor=#5A30B5;strokeColor=#ffffff;dashed=0;verticalLabelPosition=bottom;verticalAlign=top;align=center;html=1;fontSize=12;fontStyle=0;aspect=fixed;shape=mxgraph.aws4.resourceIcon;resIcon=mxgraph.aws4.cloudfront;" parent="9Y4qasNTkNWfP-TO7m-Q-3" vertex="1">
          <mxGeometry x="120" y="350" width="78" height="78" as="geometry" />
        </mxCell>
        <mxCell id="9Y4qasNTkNWfP-TO7m-Q-39" style="edgeStyle=orthogonalEdgeStyle;rounded=0;orthogonalLoop=1;jettySize=auto;html=1;flowAnimation=1;" parent="9Y4qasNTkNWfP-TO7m-Q-3" source="9Y4qasNTkNWfP-TO7m-Q-40" target="9Y4qasNTkNWfP-TO7m-Q-38" edge="1">
          <mxGeometry relative="1" as="geometry" />
        </mxCell>
        <mxCell id="9Y4qasNTkNWfP-TO7m-Q-40" value="" style="sketch=0;points=[[0,0,0],[0.25,0,0],[0.5,0,0],[0.75,0,0],[1,0,0],[0,1,0],[0.25,1,0],[0.5,1,0],[0.75,1,0],[1,1,0],[0,0.25,0],[0,0.5,0],[0,0.75,0],[1,0.25,0],[1,0.5,0],[1,0.75,0]];outlineConnect=0;fontColor=#232F3E;gradientColor=#945DF2;gradientDirection=north;fillColor=#5A30B5;strokeColor=#ffffff;dashed=0;verticalLabelPosition=bottom;verticalAlign=top;align=center;html=1;fontSize=12;fontStyle=0;aspect=fixed;shape=mxgraph.aws4.resourceIcon;resIcon=mxgraph.aws4.route_53;" parent="9Y4qasNTkNWfP-TO7m-Q-3" vertex="1">
          <mxGeometry x="120" y="140" width="78" height="78" as="geometry" />
        </mxCell>
        <mxCell id="9Y4qasNTkNWfP-TO7m-Q-42" value="Route 53" style="text;html=1;strokeColor=none;fillColor=none;align=center;verticalAlign=middle;whiteSpace=wrap;rounded=0;" parent="9Y4qasNTkNWfP-TO7m-Q-3" vertex="1">
          <mxGeometry x="109" y="110" width="100" height="30" as="geometry" />
        </mxCell>
        <mxCell id="9Y4qasNTkNWfP-TO7m-Q-43" value="CloudFront" style="text;html=1;strokeColor=none;fillColor=none;align=center;verticalAlign=middle;whiteSpace=wrap;rounded=0;" parent="9Y4qasNTkNWfP-TO7m-Q-3" vertex="1">
          <mxGeometry x="30" y="374" width="100" height="30" as="geometry" />
        </mxCell>
        <mxCell id="Aq1cYlGCy7uM0in36MkD-1" style="edgeStyle=orthogonalEdgeStyle;rounded=0;orthogonalLoop=1;jettySize=auto;html=1;entryX=0.5;entryY=1;entryDx=0;entryDy=0;entryPerimeter=0;flowAnimation=1;" edge="1" parent="9Y4qasNTkNWfP-TO7m-Q-3" source="9Y4qasNTkNWfP-TO7m-Q-52" target="9Y4qasNTkNWfP-TO7m-Q-38">
          <mxGeometry relative="1" as="geometry" />
        </mxCell>
        <mxCell id="9Y4qasNTkNWfP-TO7m-Q-52" value="" style="sketch=0;points=[[0,0,0],[0.25,0,0],[0.5,0,0],[0.75,0,0],[1,0,0],[0,1,0],[0.25,1,0],[0.5,1,0],[0.75,1,0],[1,1,0],[0,0.25,0],[0,0.5,0],[0,0.75,0],[1,0.25,0],[1,0.5,0],[1,0.75,0]];outlineConnect=0;fontColor=#232F3E;gradientColor=#F54749;gradientDirection=north;fillColor=#C7131F;strokeColor=#ffffff;dashed=0;verticalLabelPosition=bottom;verticalAlign=top;align=center;html=1;fontSize=12;fontStyle=0;aspect=fixed;shape=mxgraph.aws4.resourceIcon;resIcon=mxgraph.aws4.certificate_manager_3;" parent="9Y4qasNTkNWfP-TO7m-Q-3" vertex="1">
          <mxGeometry x="120" y="570" width="78" height="78" as="geometry" />
        </mxCell>
        <mxCell id="9Y4qasNTkNWfP-TO7m-Q-4" value="Region SÃ£o Paulo" style="points=[[0,0],[0.25,0],[0.5,0],[0.75,0],[1,0],[1,0.25],[1,0.5],[1,0.75],[1,1],[0.75,1],[0.5,1],[0.25,1],[0,1],[0,0.75],[0,0.5],[0,0.25]];outlineConnect=0;gradientColor=none;html=1;whiteSpace=wrap;fontSize=12;fontStyle=0;container=1;pointerEvents=0;collapsible=0;recursiveResize=0;shape=mxgraph.aws4.group;grIcon=mxgraph.aws4.group_region;strokeColor=#147EBA;fillColor=none;verticalAlign=top;align=left;spacingLeft=30;fontColor=#147EBA;dashed=1;" parent="9Y4qasNTkNWfP-TO7m-Q-3" vertex="1">
          <mxGeometry x="330" y="20" width="290" height="670" as="geometry" />
        </mxCell>
        <mxCell id="9Y4qasNTkNWfP-TO7m-Q-33" value="" style="sketch=0;points=[[0,0,0],[0.25,0,0],[0.5,0,0],[0.75,0,0],[1,0,0],[0,1,0],[0.25,1,0],[0.5,1,0],[0.75,1,0],[1,1,0],[0,0.25,0],[0,0.5,0],[0,0.75,0],[1,0.25,0],[1,0.5,0],[1,0.75,0]];outlineConnect=0;fontColor=#232F3E;gradientColor=#60A337;gradientDirection=north;fillColor=#277116;strokeColor=#ffffff;dashed=0;verticalLabelPosition=bottom;verticalAlign=top;align=center;html=1;fontSize=12;fontStyle=0;aspect=fixed;shape=mxgraph.aws4.resourceIcon;resIcon=mxgraph.aws4.s3;" parent="9Y4qasNTkNWfP-TO7m-Q-4" vertex="1">
          <mxGeometry x="117" y="330" width="78" height="78" as="geometry" />
        </mxCell>
        <mxCell id="9Y4qasNTkNWfP-TO7m-Q-34" value="Amazon S3" style="text;html=1;strokeColor=none;fillColor=none;align=center;verticalAlign=middle;whiteSpace=wrap;rounded=0;" parent="9Y4qasNTkNWfP-TO7m-Q-4" vertex="1">
          <mxGeometry x="106" y="410" width="100" height="30" as="geometry" />
        </mxCell>
        <mxCell id="9Y4qasNTkNWfP-TO7m-Q-57" style="edgeStyle=orthogonalEdgeStyle;rounded=0;orthogonalLoop=1;jettySize=auto;html=1;entryX=1;entryY=0.5;entryDx=0;entryDy=0;entryPerimeter=0;flowAnimation=1;" parent="9Y4qasNTkNWfP-TO7m-Q-3" source="9Y4qasNTkNWfP-TO7m-Q-33" target="9Y4qasNTkNWfP-TO7m-Q-38" edge="1">
          <mxGeometry relative="1" as="geometry">
            <Array as="points">
              <mxPoint x="475" y="389" />
            </Array>
          </mxGeometry>
        </mxCell>
        <mxCell id="9Y4qasNTkNWfP-TO7m-Q-60" value="Amazon Certificate Manager" style="text;html=1;strokeColor=none;fillColor=none;align=center;verticalAlign=middle;whiteSpace=wrap;rounded=0;" parent="9Y4qasNTkNWfP-TO7m-Q-3" vertex="1">
          <mxGeometry x="99" y="660" width="120" height="30" as="geometry" />
        </mxCell>
        <mxCell id="9Y4qasNTkNWfP-TO7m-Q-50" style="edgeStyle=orthogonalEdgeStyle;rounded=0;orthogonalLoop=1;jettySize=auto;html=1;flowAnimation=1;" parent="1" source="9Y4qasNTkNWfP-TO7m-Q-49" target="9Y4qasNTkNWfP-TO7m-Q-40" edge="1">
          <mxGeometry relative="1" as="geometry" />
        </mxCell>
        <mxCell id="9Y4qasNTkNWfP-TO7m-Q-49" value="" style="fontColor=#0066CC;verticalAlign=top;verticalLabelPosition=bottom;labelPosition=center;align=center;html=1;outlineConnect=0;fillColor=#CCCCCC;strokeColor=#6881B3;gradientColor=none;gradientDirection=north;strokeWidth=2;shape=mxgraph.networks.pc;" parent="1" vertex="1">
          <mxGeometry x="190" y="174" width="100" height="70" as="geometry" />
        </mxCell>
        <mxCell id="9Y4qasNTkNWfP-TO7m-Q-59" value="PC" style="text;html=1;strokeColor=none;fillColor=none;align=center;verticalAlign=middle;whiteSpace=wrap;rounded=0;" parent="1" vertex="1">
          <mxGeometry x="190" y="144" width="100" height="30" as="geometry" />
        </mxCell>
      </root>
    </mxGraphModel>
  </diagram>
</mxfile>
